<svg width="551" height="560" viewBox="0 0 551 560" fill="none" xmlns="http://www.w3.org/2000/svg">
<path d="M0 193H115L155.728 276.5L115 422.5L0 193Z" fill="#C6DFB6"/>
<path d="M291.5 210L352 423H470L352 0H233L291.5 210Z" fill="#558139"/>
<path d="M233 423H115L155.728 277L233 0L291.5 210L233 423Z" fill="#AAD091"/>
<path d="M125.344 528.73C121.125 533.691 114.934 536.172 106.77 536.172C100.012 536.172 94.8555 534.219 91.3008 530.312C87.7852 526.367 86.0078 520.547 85.9688 512.852V471.602H96.8086V512.559C96.8086 522.168 100.715 526.973 108.527 526.973C116.809 526.973 122.316 523.887 125.051 517.715V471.602H135.891V535H125.578L125.344 528.73ZM201.223 512.734H165.48L157.453 535H145.852L178.43 449.688H188.273L220.91 535H209.367L201.223 512.734ZM168.879 503.477H197.883L183.352 463.574L168.879 503.477ZM267.609 518.184C267.609 515.254 266.496 512.988 264.27 511.387C262.082 509.746 258.234 508.34 252.727 507.168C247.258 505.996 242.902 504.59 239.66 502.949C236.457 501.309 234.074 499.355 232.512 497.09C230.988 494.824 230.227 492.129 230.227 489.004C230.227 483.809 232.414 479.414 236.789 475.82C241.203 472.227 246.828 470.43 253.664 470.43C260.852 470.43 266.672 472.285 271.125 475.996C275.617 479.707 277.863 484.453 277.863 490.234H266.965C266.965 487.266 265.695 484.707 263.156 482.559C260.656 480.41 257.492 479.336 253.664 479.336C249.719 479.336 246.633 480.195 244.406 481.914C242.18 483.633 241.066 485.879 241.066 488.652C241.066 491.27 242.102 493.242 244.172 494.57C246.242 495.898 249.973 497.168 255.363 498.379C260.793 499.59 265.188 501.035 268.547 502.715C271.906 504.395 274.387 506.426 275.988 508.809C277.629 511.152 278.449 514.023 278.449 517.422C278.449 523.086 276.184 527.637 271.652 531.074C267.121 534.473 261.242 536.172 254.016 536.172C248.938 536.172 244.445 535.273 240.539 533.477C236.633 531.68 233.566 529.18 231.34 525.977C229.152 522.734 228.059 519.238 228.059 515.488H238.898C239.094 519.121 240.539 522.012 243.234 524.16C245.969 526.27 249.562 527.324 254.016 527.324C258.117 527.324 261.398 526.504 263.859 524.863C266.359 523.184 267.609 520.957 267.609 518.184ZM329.484 518.184C329.484 515.254 328.371 512.988 326.145 511.387C323.957 509.746 320.109 508.34 314.602 507.168C309.133 505.996 304.777 504.59 301.535 502.949C298.332 501.309 295.949 499.355 294.387 497.09C292.863 494.824 292.102 492.129 292.102 489.004C292.102 483.809 294.289 479.414 298.664 475.82C303.078 472.227 308.703 470.43 315.539 470.43C322.727 470.43 328.547 472.285 333 475.996C337.492 479.707 339.738 484.453 339.738 490.234H328.84C328.84 487.266 327.57 484.707 325.031 482.559C322.531 480.41 319.367 479.336 315.539 479.336C311.594 479.336 308.508 480.195 306.281 481.914C304.055 483.633 302.941 485.879 302.941 488.652C302.941 491.27 303.977 493.242 306.047 494.57C308.117 495.898 311.848 497.168 317.238 498.379C322.668 499.59 327.062 501.035 330.422 502.715C333.781 504.395 336.262 506.426 337.863 508.809C339.504 511.152 340.324 514.023 340.324 517.422C340.324 523.086 338.059 527.637 333.527 531.074C328.996 534.473 323.117 536.172 315.891 536.172C310.812 536.172 306.32 535.273 302.414 533.477C298.508 531.68 295.441 529.18 293.215 525.977C291.027 522.734 289.934 519.238 289.934 515.488H300.773C300.969 519.121 302.414 522.012 305.109 524.16C307.844 526.27 311.438 527.324 315.891 527.324C319.992 527.324 323.273 526.504 325.734 524.863C328.234 523.184 329.484 520.957 329.484 518.184ZM366.223 535H355.383V471.602H366.223V535ZM354.504 454.785C354.504 453.027 355.031 451.543 356.086 450.332C357.18 449.121 358.781 448.516 360.891 448.516C363 448.516 364.602 449.121 365.695 450.332C366.789 451.543 367.336 453.027 367.336 454.785C367.336 456.543 366.789 458.008 365.695 459.18C364.602 460.352 363 460.938 360.891 460.938C358.781 460.938 357.18 460.352 356.086 459.18C355.031 458.008 354.504 456.543 354.504 454.785ZM381.047 502.773C381.047 492.891 383.332 485.039 387.902 479.219C392.473 473.359 398.527 470.43 406.066 470.43C413.801 470.43 419.836 473.164 424.172 478.633L424.699 471.602H434.602V533.477C434.602 541.68 432.16 548.145 427.277 552.871C422.434 557.598 415.91 559.961 407.707 559.961C403.137 559.961 398.664 558.984 394.289 557.031C389.914 555.078 386.574 552.402 384.27 549.004L389.895 542.5C394.543 548.242 400.227 551.113 406.945 551.113C412.219 551.113 416.32 549.629 419.25 546.66C422.219 543.691 423.703 539.512 423.703 534.121V528.672C419.367 533.672 413.449 536.172 405.949 536.172C398.527 536.172 392.512 533.184 387.902 527.207C383.332 521.23 381.047 513.086 381.047 502.773ZM391.945 504.004C391.945 511.152 393.41 516.777 396.34 520.879C399.27 524.941 403.371 526.973 408.645 526.973C415.48 526.973 420.5 523.867 423.703 517.656V488.711C420.383 482.656 415.402 479.629 408.762 479.629C403.488 479.629 399.367 481.68 396.398 485.781C393.43 489.883 391.945 495.957 391.945 504.004ZM461.262 471.602L461.613 479.57C466.457 473.477 472.785 470.43 480.598 470.43C493.996 470.43 500.754 477.988 500.871 493.105V535H490.031V493.047C489.992 488.477 488.938 485.098 486.867 482.91C484.836 480.723 481.652 479.629 477.316 479.629C473.801 479.629 470.715 480.566 468.059 482.441C465.402 484.316 463.332 486.777 461.848 489.824V535H451.008V471.602H461.262Z" fill="black"/>
</svg>
