<svg width="176" height="178" viewBox="0 0 176 178" fill="none" xmlns="http://www.w3.org/2000/svg">
<g clip-path="url(#clip0)">
<mask id="mask0" mask-type="alpha" maskUnits="userSpaceOnUse" x="0" y="-35" width="176" height="213">
<path d="M0 -35H176V91.5C176 207 -1.37836e-07 206 0 91.5V-35Z" fill="#C4C4C4"/>
<path d="M0 -35H176V91.5C176 207 -1.37836e-07 206 0 91.5V-35Z" fill="#C4C4C4"/>
</mask>
<g mask="url(#mask0)">
<path d="M176 0C96.4905 79.4234 54.6417 110.022 0 62.5L35.5 144.5L84 150.5L164.5 84.5L176 0Z" fill="url(#paint0_linear)"/>
<rect x="24.8312" y="151.242" width="228.492" height="181.149" transform="rotate(-45.0701 24.8312 151.242)" fill="url(#paint1_linear)"/>
<path d="M230.415 262.667L-31.9416 34.6899L-36.4809 278.512L230.415 262.667Z" fill="#555555"/>
</g>
</g>
<defs>
<linearGradient id="paint0_linear" x1="66" y1="38.5" x2="68.5" y2="122" gradientUnits="userSpaceOnUse">
<stop stop-color="#CE0000"/>
<stop offset="0.0001" stop-color="#BF0000"/>
<stop offset="1" stop-color="#A30404"/>
</linearGradient>
<linearGradient id="paint1_linear" x1="121.534" y1="248.114" x2="56.7147" y2="259.362" gradientUnits="userSpaceOnUse">
<stop stop-color="#333333"/>
<stop offset="1" stop-color="#1B1919"/>
</linearGradient>
<clipPath id="clip0">
<rect width="176" height="178" fill="white"/>
</clipPath>
</defs>
</svg>
