<?xml version="1.0" standalone="no"?>
<!DOCTYPE svg PUBLIC "-//W3C//DTD SVG 20010904//EN"
 "http://www.w3.org/TR/2001/REC-SVG-20010904/DTD/svg10.dtd">
<svg version="1.0" xmlns="http://www.w3.org/2000/svg"
 width="700.000000pt" height="700.000000pt" viewBox="0 0 700.000000 700.000000"
 preserveAspectRatio="xMidYMid meet">
<metadata>
Created by potrace 1.11, written by Peter Selinger 2001-2013
</metadata>
<g transform="translate(0.000000,700.000000) scale(0.100000,-0.100000)"
fill="#000000" stroke="none">
<path d="M5560 5114 c-1161 -1164 -1960 -1756 -2600 -1928 -192 -51 -263 -60
-465 -60 -158 0 -208 4 -295 23 -347 74 -687 255 -1028 546 l-42 37 0 -469 c0
-575 12 -717 85 -991 215 -813 864 -1405 1745 -1590 340 -72 736 -73 1090 -2
555 112 1055 417 1377 842 176 231 321 551 382 843 57 268 54 190 58 1545 2
690 2 1312 1 1383 l-3 127 -305 -306z"/>
</g>
</svg>
