<?xml version="1.0" standalone="no"?>
<!DOCTYPE svg PUBLIC "-//W3C//DTD SVG 20010904//EN"
 "http://www.w3.org/TR/2001/REC-SVG-20010904/DTD/svg10.dtd">
<svg version="1.0" xmlns="http://www.w3.org/2000/svg"
 width="700.000000pt" height="700.000000pt" viewBox="0 0 700.000000 700.000000"
 preserveAspectRatio="xMidYMid meet">
<metadata>
Created by potrace 1.14, written by Peter Selinger 2001-2017
</metadata>
<g transform="translate(0.000000,700.000000) scale(0.100000,-0.100000)"
fill="#000000" stroke="none">
<path d="M6554 6607 c-331 -332 -575 -569 -745 -728 -197 -183 -263 -243 -314
-289 -33 -29 -62 -56 -65 -59 -3 -4 -50 -46 -105 -95 -55 -49 -116 -103 -135
-120 -30 -27 -93 -82 -200 -173 -810 -693 -1522 -1144 -2118 -1343 -68 -23
-131 -43 -140 -45 -9 -2 -46 -11 -82 -20 -144 -35 -136 -34 -266 -55 -177 -29
-506 -31 -659 -5 -252 44 -372 76 -565 152 -331 131 -694 355 -1020 631 -52
45 -96 79 -98 77 -5 -5 -3 -1318 3 -1390 52 -724 260 -1309 646 -1820 98 -131
131 -169 238 -280 321 -331 721 -595 1171 -773 174 -69 439 -148 585 -176 44
-8 87 -17 95 -20 28 -10 242 -39 415 -56 90 -9 628 -6 675 3 14 3 54 8 90 12
219 21 536 90 765 167 1022 341 1763 1077 2070 2056 88 283 137 557 160 892 4
52 7 920 6 1930 0 2122 1 1920 -8 1919 -5 0 -184 -177 -399 -392z"/>
</g>
</svg>
